<svg width="26" height="23" viewBox="0 0 26 23" fill="none" xmlns="http://www.w3.org/2000/svg">
<g clip-path="url(#clip0_2_35)">
<path d="M10.9575 19.9746C9.96208 19.9746 9.00065 19.8439 8.07324 19.5825C7.14583 19.3211 6.27393 18.9487 5.45752 18.4653C4.64111 17.9819 3.8999 17.4072 3.23389 16.7412C2.56787 16.0752 1.99316 15.334 1.50977 14.5176C1.02637 13.7012 0.653971 12.8293 0.392578 11.9019C0.131185 10.9744 0.000488281 10.013 0.000488281 9.01758C0.000488281 8.01497 0.131185 7.05176 0.392578 6.12793C0.653971 5.2041 1.02458 4.33398 1.50439 3.51758C1.98421 2.70117 2.55713 1.95996 3.22314 1.29395C3.88916 0.62793 4.63037 0.0532227 5.44678 -0.430176C6.26318 -0.913574 7.13509 -1.28597 8.0625 -1.54736C8.98991 -1.80876 9.95133 -1.93945 10.9468 -1.93945C11.9494 -1.93945 12.9144 -1.80876 13.8418 -1.54736C14.7692 -1.28597 15.6393 -0.913574 16.4521 -0.430176C17.265 0.0532227 18.0062 0.62793 18.6758 1.29395C19.3454 1.95996 19.9219 2.70117 20.4053 3.51758C20.8887 4.33398 21.2611 5.2041 21.5225 6.12793C21.7839 7.05176 21.9146 8.01497 21.9146 9.01758C21.9146 10.013 21.7839 10.9744 21.5225 11.9019C21.2611 12.8293 20.8887 13.7012 20.4053 14.5176C19.9219 15.334 19.3472 16.0752 18.6812 16.7412C18.0151 17.4072 17.2739 17.9819 16.4575 18.4653C15.6411 18.9487 14.771 19.3211 13.8472 19.5825C12.9233 19.8439 11.9601 19.9746 10.9575 19.9746ZM10.9575 18.1484C11.9744 18.1484 12.9395 17.9963 13.8525 17.6919C14.7656 17.3875 15.6017 16.9561 16.3608 16.3975C17.12 15.8389 17.7788 15.18 18.3374 14.4209C18.896 13.6618 19.3275 12.8257 19.6318 11.9126C19.9362 10.9995 20.0884 10.0345 20.0884 9.01758C20.0884 8.00065 19.9344 7.03564 19.6265 6.12256C19.3185 5.20947 18.8853 4.37337 18.3267 3.61426C17.7681 2.85514 17.1092 2.19629 16.3501 1.6377C15.591 1.0791 14.7549 0.647624 13.8418 0.343262C12.9287 0.0388997 11.9637 -0.113281 10.9468 -0.113281C9.92985 -0.113281 8.96663 0.0388997 8.05713 0.343262C7.14762 0.647624 6.31331 1.0791 5.5542 1.6377C4.79508 2.19629 4.13802 2.85514 3.58301 3.61426C3.02799 4.37337 2.59831 5.20947 2.29395 6.12256C1.98958 7.03564 1.8374 8.00065 1.8374 9.01758C1.8374 10.0345 1.98958 10.9995 2.29395 11.9126C2.59831 12.8257 3.02799 13.6618 3.58301 14.4209C4.13802 15.18 4.79508 15.8389 5.5542 16.3975C6.31331 16.9561 7.14941 17.3875 8.0625 17.6919C8.97559 17.9963 9.94059 18.1484 10.9575 18.1484ZM9.06689 12.9707C8.90934 13.0638 8.75358 13.105 8.59961 13.0942C8.44564 13.0835 8.31673 13.028 8.21289 12.9277C8.10905 12.8275 8.05713 12.6986 8.05713 12.541V5.50488C8.05713 5.34017 8.11084 5.21126 8.21826 5.11816C8.32568 5.02507 8.45817 4.97314 8.61572 4.9624C8.77327 4.95166 8.92367 4.98926 9.06689 5.0752L14.8247 8.48047C14.9608 8.55924 15.0521 8.66846 15.0986 8.80811C15.1452 8.94775 15.147 9.0874 15.104 9.22705C15.061 9.3667 14.9679 9.47949 14.8247 9.56543L9.06689 12.9707Z" fill="#1D1D1D"/>
</g>
<defs>
<clipPath id="clip0_2_35">
<rect width="25.75" height="22" fill="white" transform="matrix(1 0 0 -1 0 22.0801)"/>
</clipPath>
</defs>
</svg>
