<svg width="18" height="15" viewBox="0 0 18 15" fill="none" xmlns="http://www.w3.org/2000/svg">
<g clip-path="url(#clip0_2_19)">
<path d="M7.7168 12.9102C7.08333 12.9102 6.47152 12.827 5.88135 12.6606C5.29118 12.4943 4.73633 12.2573 4.2168 11.9497C3.69727 11.6421 3.22559 11.2764 2.80176 10.8525C2.37793 10.4287 2.01221 9.95703 1.70459 9.4375C1.39697 8.91797 1.15999 8.36312 0.993652 7.77295C0.827311 7.18278 0.744141 6.57096 0.744141 5.9375C0.744141 5.29948 0.827311 4.68652 0.993652 4.09863C1.15999 3.51074 1.39583 2.95703 1.70117 2.4375C2.00651 1.91797 2.37109 1.44629 2.79492 1.02246C3.21875 0.598633 3.69043 0.23291 4.20996 -0.074707C4.72949 -0.382324 5.28434 -0.619303 5.87451 -0.785645C6.46468 -0.951986 7.0765 -1.03516 7.70996 -1.03516C8.34798 -1.03516 8.96208 -0.951986 9.55225 -0.785645C10.1424 -0.619303 10.6961 -0.382324 11.2134 -0.074707C11.7306 0.23291 12.2023 0.598633 12.6284 1.02246C13.0545 1.44629 13.4214 1.91797 13.729 2.4375C14.0366 2.95703 14.2736 3.51074 14.4399 4.09863C14.6063 4.68652 14.6895 5.29948 14.6895 5.9375C14.6895 6.57096 14.6063 7.18278 14.4399 7.77295C14.2736 8.36312 14.0366 8.91797 13.729 9.4375C13.4214 9.95703 13.0557 10.4287 12.6318 10.8525C12.208 11.2764 11.7363 11.6421 11.2168 11.9497C10.6973 12.2573 10.1436 12.4943 9.55566 12.6606C8.96777 12.827 8.35482 12.9102 7.7168 12.9102ZM6.47266 8.57617L10.3145 6.2998C10.4102 6.24512 10.4728 6.17106 10.5024 6.07764C10.5321 5.98421 10.5309 5.89079 10.499 5.79736C10.4671 5.70394 10.4056 5.62988 10.3145 5.5752L6.47266 3.29883C6.37695 3.23958 6.27669 3.21452 6.17188 3.22363C6.06706 3.23275 5.97819 3.26807 5.90527 3.32959C5.83236 3.39111 5.7959 3.47428 5.7959 3.5791V8.28906C5.7959 8.39388 5.83008 8.47933 5.89844 8.54541C5.9668 8.61149 6.05339 8.64795 6.1582 8.65479C6.26302 8.66162 6.36784 8.63542 6.47266 8.57617Z" fill="#1D1D1F"/>
</g>
<defs>
<clipPath id="clip0_2_19">
<rect width="16.71" height="14" fill="white" transform="matrix(1 0 0 -1 0.470001 14.25)"/>
</clipPath>
</defs>
</svg>
