<svg width="23" height="2" viewBox="0 0 23 2" fill="none" xmlns="http://www.w3.org/2000/svg">
<g clip-path="url(#clip0_2_10)">
<path d="M9.70072 1.1543C8.8746 1.1543 8.07671 1.14836 7.30706 1.13647C6.5374 1.12459 5.8138 1.10767 5.13627 1.08569C4.45873 1.06372 3.8436 1.0376 3.29088 1.00732C2.73815 0.977051 2.2612 0.943359 1.86003 0.90625C1.45886 0.869141 1.14981 0.829508 0.932878 0.787354C0.715948 0.745199 0.607483 0.701497 0.607483 0.65625C0.607483 0.610677 0.715948 0.566895 0.932878 0.524902C1.14981 0.48291 1.45737 0.443359 1.85557 0.40625C2.25377 0.369141 2.72924 0.335449 3.28196 0.305176C3.83469 0.274902 4.44982 0.248779 5.12735 0.226807C5.80489 0.204834 6.52849 0.187907 7.29814 0.176025C8.0678 0.164144 8.86568 0.158203 9.6918 0.158203C10.5239 0.158203 11.3247 0.164144 12.0944 0.176025C12.864 0.187907 13.5861 0.204834 14.2607 0.226807C14.9353 0.248779 15.5504 0.274902 16.1061 0.305176C16.6618 0.335449 17.1402 0.369141 17.5414 0.40625C17.9426 0.443359 18.2516 0.48291 18.4686 0.524902C18.6855 0.566895 18.7939 0.610677 18.7939 0.65625C18.7939 0.701497 18.6855 0.745199 18.4686 0.787354C18.2516 0.829508 17.9426 0.869141 17.5414 0.90625C17.1402 0.943359 16.6633 0.977051 16.1106 1.00732C15.5578 1.0376 14.9427 1.06372 14.2652 1.08569C13.5876 1.10767 12.8655 1.12459 12.0988 1.13647C11.3321 1.14836 10.5328 1.1543 9.70072 1.1543ZM8.0782 0.844727L13.0884 0.682129C13.2132 0.678223 13.2949 0.672933 13.3336 0.66626C13.3722 0.659587 13.3707 0.652913 13.3291 0.64624C13.2875 0.639567 13.2073 0.634277 13.0884 0.630371L8.0782 0.467773C7.95339 0.463542 7.82264 0.461751 7.68594 0.462402C7.54925 0.463053 7.43335 0.465576 7.33826 0.469971C7.24317 0.474365 7.19562 0.480306 7.19562 0.487793V0.824219C7.19562 0.831706 7.24019 0.837809 7.32934 0.842529C7.41849 0.847249 7.53142 0.849854 7.66811 0.850342C7.80481 0.85083 7.9415 0.848958 8.0782 0.844727Z" fill="#1D1D1F"/>
</g>
<defs>
<clipPath id="clip0_2_10">
<rect width="21.792" height="1" fill="white" transform="matrix(1 0 0 -1 0.25 1.25)"/>
</clipPath>
</defs>
</svg>
