<svg width="8" height="22" viewBox="0 0 8 22" fill="none" xmlns="http://www.w3.org/2000/svg">
<g clip-path="url(#clip0_2_49)">
<path d="M0.995703 15.7654C0.826044 15.7654 0.681013 15.7065 0.56061 15.5889C0.440206 15.4712 0.380005 15.3276 0.380005 15.1579C0.380005 14.9882 0.442943 14.8405 0.568819 14.7146L3.88538 11.4062L0.568819 8.09788C0.442943 7.97201 0.380005 7.82424 0.380005 7.65458C0.380005 7.48492 0.440206 7.34126 0.56061 7.22359C0.681013 7.10593 0.826044 7.04709 0.995703 7.04709C1.15442 7.04709 1.29671 7.10456 1.42259 7.21949L5.16603 10.9465C5.29738 11.0669 5.36306 11.2202 5.36306 11.4062C5.36306 11.5814 5.29738 11.7346 5.16603 11.866L1.42259 15.593C1.30766 15.7079 1.16536 15.7654 0.995703 15.7654Z" fill="#0066CC"/>
</g>
<defs>
<clipPath id="clip0_2_49">
<rect width="7.13" height="21" fill="white" transform="matrix(1 0 0 -1 0.380005 21.8899)"/>
</clipPath>
</defs>
</svg>
