<svg width="8" height="22" viewBox="0 0 8 22" fill="none" xmlns="http://www.w3.org/2000/svg">
<g clip-path="url(#clip0_2_60)">
<path d="M1.15571 15.7654C0.986048 15.7654 0.841017 15.7065 0.720613 15.5889C0.60021 15.4712 0.540009 15.3276 0.540009 15.1579C0.540009 14.9882 0.602947 14.8405 0.728823 14.7146L4.04538 11.4062L0.728823 8.09788C0.602947 7.97201 0.540009 7.82424 0.540009 7.65458C0.540009 7.48492 0.60021 7.34126 0.720613 7.22359C0.841017 7.10593 0.986048 7.04709 1.15571 7.04709C1.31442 7.04709 1.45671 7.10456 1.58259 7.21949L5.32604 10.9465C5.45739 11.0669 5.52306 11.2202 5.52306 11.4062C5.52306 11.5814 5.45739 11.7346 5.32604 11.866L1.58259 15.593C1.46766 15.7079 1.32537 15.7654 1.15571 15.7654Z" fill="#0066CC"/>
</g>
<defs>
<clipPath id="clip0_2_60">
<rect width="7.13" height="21" fill="white" transform="matrix(1 0 0 -1 0.540009 21.8899)"/>
</clipPath>
</defs>
</svg>
