<svg width="11" height="30" viewBox="0 0 11 30" fill="none" xmlns="http://www.w3.org/2000/svg">
<g clip-path="url(#clip0_2_162)">
<path d="M1.59417 20.6418C1.38085 20.6418 1.19849 20.5678 1.0471 20.4198C0.895704 20.2719 0.820007 20.0912 0.820007 19.8779C0.820007 19.6646 0.899144 19.4788 1.05742 19.3205L5.2276 15.1607L1.05742 11.0008C0.899144 10.8425 0.820007 10.6567 0.820007 10.4434C0.820007 10.2301 0.895704 10.0494 1.0471 9.90148C1.19849 9.75353 1.38085 9.67956 1.59417 9.67956C1.79374 9.67956 1.97266 9.75181 2.13093 9.89632L6.83786 14.5826C7.00302 14.734 7.0856 14.9267 7.0856 15.1607C7.0856 15.3809 7.00302 15.5735 6.83786 15.7387L2.13093 20.425C1.98642 20.5695 1.8075 20.6418 1.59417 20.6418Z" fill="#0066CC"/>
</g>
<defs>
<clipPath id="clip0_2_162">
<rect width="9.51" height="29" fill="white" transform="matrix(1 0 0 -1 0.820007 29.64)"/>
</clipPath>
</defs>
</svg>
