<svg width="9" height="22" viewBox="0 0 9 22" fill="none" xmlns="http://www.w3.org/2000/svg">
<g clip-path="url(#clip0_2_89)">
<path d="M1.5257 15.7654C1.35604 15.7654 1.21101 15.7065 1.09061 15.5889C0.970205 15.4712 0.910004 15.3276 0.910004 15.1579C0.910004 14.9882 0.972942 14.8405 1.09882 14.7146L4.41538 11.4062L1.09882 8.09788C0.972942 7.97201 0.910004 7.82424 0.910004 7.65458C0.910004 7.48492 0.970205 7.34126 1.09061 7.22359C1.21101 7.10593 1.35604 7.04709 1.5257 7.04709C1.68442 7.04709 1.82671 7.10456 1.95259 7.21949L5.69603 10.9465C5.82738 11.0669 5.89306 11.2202 5.89306 11.4062C5.89306 11.5814 5.82738 11.7346 5.69603 11.866L1.95259 15.593C1.83766 15.7079 1.69536 15.7654 1.5257 15.7654Z" fill="#2997FF"/>
</g>
<defs>
<clipPath id="clip0_2_89">
<rect width="7.13" height="21" fill="white" transform="matrix(1 0 0 -1 0.910004 21.8899)"/>
</clipPath>
</defs>
</svg>
