<svg width="8" height="22" viewBox="0 0 8 22" fill="none" xmlns="http://www.w3.org/2000/svg">
<g clip-path="url(#clip0_2_104)">
<path d="M1.48569 15.7654C1.31603 15.7654 1.171 15.7065 1.0506 15.5889C0.930197 15.4712 0.869995 15.3276 0.869995 15.1579C0.869995 14.9882 0.932933 14.8405 1.05881 14.7146L4.37537 11.4062L1.05881 8.09788C0.932933 7.97201 0.869995 7.82424 0.869995 7.65458C0.869995 7.48492 0.930197 7.34126 1.0506 7.22359C1.171 7.10593 1.31603 7.04709 1.48569 7.04709C1.64441 7.04709 1.7867 7.10456 1.91258 7.21949L5.65602 10.9465C5.78737 11.0669 5.85305 11.2202 5.85305 11.4062C5.85305 11.5814 5.78737 11.7346 5.65602 11.866L1.91258 15.593C1.79765 15.7079 1.65535 15.7654 1.48569 15.7654Z" fill="#0066CC"/>
</g>
<defs>
<clipPath id="clip0_2_104">
<rect width="7.13" height="21" fill="white" transform="matrix(1 0 0 -1 0.869995 21.8899)"/>
</clipPath>
</defs>
</svg>
