<svg width="11" height="30" viewBox="0 0 11 30" fill="none" xmlns="http://www.w3.org/2000/svg">
<g clip-path="url(#clip0_2_165)">
<path d="M1.62417 20.6418C1.41085 20.6418 1.22849 20.5678 1.07709 20.4198C0.925702 20.2719 0.850006 20.0912 0.850006 19.8779C0.850006 19.6646 0.929143 19.4788 1.08742 19.3205L5.25759 15.1607L1.08742 11.0008C0.929143 10.8425 0.850006 10.6567 0.850006 10.4434C0.850006 10.2301 0.925702 10.0494 1.07709 9.90148C1.22849 9.75353 1.41085 9.67956 1.62417 9.67956C1.82374 9.67956 2.00265 9.75181 2.16093 9.89632L6.86786 14.5826C7.03302 14.734 7.11559 14.9267 7.11559 15.1607C7.11559 15.3809 7.03302 15.5735 6.86786 15.7387L2.16093 20.425C2.01642 20.5695 1.8375 20.6418 1.62417 20.6418Z" fill="#0066CC"/>
</g>
<defs>
<clipPath id="clip0_2_165">
<rect width="9.51" height="29" fill="white" transform="matrix(1 0 0 -1 0.850006 29.64)"/>
</clipPath>
</defs>
</svg>
