<svg width="1920" height="44" viewBox="0 0 1920 44" fill="none" xmlns="http://www.w3.org/2000/svg">
<rect width="1920" height="44" fill="#161617" fill-opacity="0.8"/>
<path d="M483.073 17.6825C482.552 18.0014 482.121 18.4473 481.819 18.9783C481.517 19.5094 481.355 20.1083 481.348 20.719C481.35 21.4064 481.554 22.078 481.934 22.6508C482.314 23.2235 482.854 23.6722 483.486 23.9413C483.237 24.7459 482.868 25.5084 482.391 26.2031C481.71 27.1843 480.997 28.1654 479.913 28.1654C478.828 28.1654 478.549 27.5354 477.3 27.5354C476.081 27.5354 475.647 28.1861 474.656 28.1861C473.664 28.1861 472.972 27.2772 472.177 26.1618C471.126 24.5992 470.549 22.7667 470.514 20.8842C470.514 17.7858 472.528 16.1437 474.511 16.1437C475.564 16.1437 476.442 16.8356 477.103 16.8356C477.733 16.8356 478.715 16.1023 479.913 16.1023C480.528 16.0864 481.139 16.2222 481.69 16.4978C482.241 16.7733 482.716 17.1802 483.073 17.6825ZM479.345 14.7907C479.873 14.1695 480.172 13.3858 480.191 12.5707C480.192 12.4632 480.182 12.356 480.16 12.2507C479.253 12.3393 478.414 12.7717 477.816 13.4591C477.283 14.0556 476.973 14.8183 476.938 15.6176C476.938 15.7148 476.949 15.8117 476.969 15.9068C477.041 15.9203 477.113 15.9272 477.186 15.9275C477.604 15.8942 478.011 15.7763 478.382 15.5809C478.753 15.3855 479.081 15.1166 479.345 14.7907Z" fill="white" fill-opacity="0.8"/>
<g clip-path="url(#clip0_2_272)">
<path d="M545.708 20.4629C546.71 20.4629 547.378 21.2009 547.401 22.3199H543.921C543.997 21.2009 544.7 20.4629 545.708 20.4629ZM548.462 23.1349V22.7479C548.462 20.7849 547.425 19.5719 545.72 19.5719C543.985 19.5719 542.872 20.8609 542.872 22.8479C542.872 24.8459 543.968 26.1109 545.72 26.1109C547.103 26.1109 548.087 25.4429 548.38 24.3649H547.372C547.108 24.9219 546.558 25.2209 545.743 25.2209C544.671 25.2209 543.974 24.4299 543.921 23.1819V23.1349H548.462ZM538.915 19.6839H539.875V20.6209H539.969C540.157 20.0059 540.883 19.5719 541.721 19.5719C541.885 19.5719 542.096 19.5839 542.225 19.6019V20.6089C542.143 20.5859 541.78 20.5509 541.581 20.5509C540.62 20.5509 539.922 21.6489 539.922 22.0859V25.9999H538.915V19.6839ZM534.645 25.2029C533.45 25.2029 532.776 24.3359 532.776 22.8419C532.776 21.3419 533.45 20.4809 534.645 20.4809C535.841 20.4809 536.515 21.3419 536.515 22.8419C536.515 24.3359 535.841 25.2029 534.645 25.2029ZM534.645 19.5719C532.847 19.5719 531.733 20.8089 531.733 22.8419C531.733 24.8689 532.847 26.1109 534.645 26.1109C536.444 26.1109 537.558 24.8689 537.558 22.8419C537.558 20.8089 536.444 19.5719 534.645 19.5719ZM529.167 18.0969V19.7319H530.574V20.5749H529.167V24.1499C529.167 24.8939 529.449 25.2099 530.105 25.2099C530.287 25.2099 530.386 25.2039 530.574 25.1869V26.0359C530.375 26.0709 530.181 26.0949 529.982 26.0949C528.681 26.0949 528.16 25.6139 528.16 24.4069V20.5749H527.14V19.7319H528.16V18.0969H529.167ZM521.064 23.7909C521.193 24.6759 522.037 25.2379 523.238 25.2379C524.375 25.2379 525.213 24.6229 525.213 23.7849C525.213 23.0649 524.686 22.6079 523.52 22.3149L522.436 22.0329C520.906 21.6469 520.244 20.9549 520.244 19.7539C520.244 18.3179 521.445 17.3459 523.232 17.3459C524.867 17.3459 526.086 18.3179 526.174 19.6839H525.113C524.967 18.8169 524.252 18.3009 523.197 18.3009C522.072 18.3009 521.328 18.8629 521.328 19.7189C521.328 20.3809 521.791 20.7619 522.957 21.0609L523.842 21.2949C525.594 21.7339 526.297 22.4139 526.297 23.6559C526.297 25.2089 525.072 26.1989 523.139 26.1989C521.346 26.1989 520.109 25.2499 519.998 23.7909H521.064Z" fill="white" fill-opacity="0.8"/>
</g>
<g clip-path="url(#clip1_2_272)">
<path d="M592.436 25.9987V19.5417H592.366L589.7 25.9987H588.809L586.143 19.5417H586.073V25.9987H585.088V17.5436H586.313L589.207 24.5983H589.301L592.196 17.5436H593.42V25.9987H592.436ZM594.952 24.2291C594.952 23.0982 595.784 22.4479 597.255 22.36L599.077 22.2487V21.6745C599.077 20.8952 598.591 20.4675 597.648 20.4675C596.892 20.4675 596.365 20.7546 596.224 21.2527H595.204C595.339 20.239 596.335 19.5711 597.683 19.5711C599.224 19.5711 600.085 20.3621 600.085 21.6746V25.9988H599.124V25.067H599.031C598.62 25.7408 597.929 26.11 597.085 26.11C595.861 26.11 594.952 25.3834 594.952 24.2291ZM599.077 23.6432V23.0631L597.378 23.1744C596.417 23.2389 595.995 23.5728 595.995 24.2056C595.995 24.8501 596.54 25.2251 597.273 25.2251C598.31 25.2252 599.077 24.5455 599.077 23.6432ZM606.035 21.6159C605.871 20.9889 605.315 20.4792 604.407 20.4792C603.27 20.4792 602.555 21.3874 602.555 22.8171C602.555 24.2761 603.282 25.2019 604.407 25.2019C605.256 25.2019 605.848 24.8093 606.035 24.0945H607.055C606.873 25.2547 605.93 26.1101 604.412 26.1101C602.643 26.1101 601.512 24.8269 601.512 22.8171C601.512 20.8483 602.637 19.571 604.406 19.571C605.942 19.571 606.879 20.4909 607.055 21.6159H606.035Z" fill="white" fill-opacity="0.8"/>
</g>
<path d="M657.377 23.7002C657.377 24.6022 656.609 25.2822 655.572 25.2822C654.84 25.2822 654.295 24.9072 654.295 24.2622C654.295 23.6302 654.717 23.2962 655.678 23.2312L657.377 23.1202V23.7002ZM655.982 19.6282C654.635 19.6282 653.639 20.2962 653.504 21.3092H654.523C654.664 20.8112 655.191 20.5242 655.947 20.5242C656.891 20.5242 657.377 20.9522 657.377 21.7312V22.3052L655.555 22.4172C654.084 22.5052 653.252 23.1552 653.252 24.2862C653.252 25.4402 654.16 26.1672 655.385 26.1672C656.229 26.1672 656.92 25.7982 657.33 25.1242H657.424V26.0552H658.385V21.7312C658.385 20.4192 657.523 19.6282 655.982 19.6282ZM662.751 25.2032C661.596 25.2032 660.905 24.3182 660.905 22.8422C660.905 21.3712 661.602 20.4802 662.751 20.4802C663.893 20.4802 664.608 21.3942 664.608 22.8422C664.608 24.3012 663.899 25.2032 662.751 25.2032ZM664.585 17.1762V20.6792H664.497C664.139 19.9882 663.395 19.5722 662.516 19.5722C660.911 19.5722 659.862 20.8612 659.862 22.8422C659.862 24.8282 660.899 26.1112 662.516 26.1112C663.389 26.1112 664.139 25.6952 664.538 24.9922H664.631V26.0002H665.592V17.1762H664.585ZM649.191 22.0452H647.328V18.4822H649.191C650.416 18.4822 651.09 19.1212 651.09 20.2812C651.09 21.4002 650.393 22.0452 649.191 22.0452ZM649.467 17.5452H646.273V26.0002H647.328V22.9822H649.455C651.043 22.9822 652.174 21.8632 652.174 20.2812C652.174 18.6702 651.066 17.5452 649.467 17.5452ZM643.403 25.9992H644.411V19.6832H643.403V25.9992ZM643.204 17.7622C643.204 17.3752 643.52 17.0582 643.907 17.0582C644.294 17.0582 644.61 17.3752 644.61 17.7622C644.61 18.1482 644.294 18.4652 643.907 18.4652C643.52 18.4652 643.204 18.1482 643.204 17.7622Z" fill="white" fill-opacity="0.8"/>
<path d="M734.273 22.3203H737.753C737.73 21.2013 737.062 20.4633 736.06 20.4633C735.052 20.4633 734.349 21.2013 734.273 22.3203ZM738.732 24.3653C738.439 25.4433 737.455 26.1113 736.072 26.1113C734.32 26.1113 733.224 24.8453 733.224 22.8473C733.224 20.8613 734.337 19.5723 736.072 19.5723C737.777 19.5723 738.814 20.7853 738.814 22.7483V23.1343H734.273V23.1813C734.326 24.4293 735.023 25.2203 736.095 25.2203C736.91 25.2203 737.461 24.9223 737.724 24.3653H738.732ZM726.45 19.6833H727.411V20.6793H727.505C727.821 19.9823 728.437 19.5723 729.403 19.5723C730.821 19.5723 731.612 20.4103 731.612 21.9103V26.0003H730.605V22.1563C730.605 21.0193 730.124 20.4803 729.116 20.4803C728.108 20.4803 727.458 21.1543 727.458 22.2613V26.0003H726.45V19.6833ZM723.951 22.8413C723.951 21.3413 723.277 20.4803 722.082 20.4803C720.886 20.4803 720.212 21.3413 720.212 22.8413C720.212 24.3363 720.886 25.2033 722.082 25.2033C723.277 25.2033 723.951 24.3363 723.951 22.8413ZM719.169 22.8413C719.169 20.8083 720.283 19.5723 722.082 19.5723C723.88 19.5723 724.994 20.8083 724.994 22.8413C724.994 24.8693 723.88 26.1113 722.082 26.1113C720.283 26.1113 719.169 24.8693 719.169 22.8413ZM712.533 17.1753H713.541V20.6793H713.634C713.951 19.9823 714.613 19.5723 715.58 19.5723C716.916 19.5723 717.759 20.4273 717.759 21.9103V26.0003H716.752V22.1563C716.752 21.0373 716.248 20.4803 715.293 20.4803C714.162 20.4803 713.541 21.1953 713.541 22.2613V26.0003H712.533V17.1753ZM706.518 22.0453H708.381C709.583 22.0453 710.28 21.4003 710.28 20.2813C710.28 19.1213 709.606 18.4823 708.381 18.4823H706.518V22.0453ZM708.657 17.5453C710.256 17.5453 711.364 18.6703 711.364 20.2813C711.364 21.8633 710.233 22.9823 708.645 22.9823H706.518V26.0003H705.463V17.5453H708.657ZM702.543 25.9993H703.551V19.6833H702.543V25.9993ZM702.343 17.7613C702.343 17.3753 702.66 17.0583 703.046 17.0583C703.433 17.0583 703.75 17.3753 703.75 17.7613C703.75 18.1483 703.433 18.4653 703.046 18.4653C702.66 18.4653 702.343 18.1483 702.343 17.7613Z" fill="white" fill-opacity="0.8"/>
<path d="M803.682 17.1758H804.69V20.6798H804.784C805.1 19.9828 805.762 19.5718 806.729 19.5718C808.065 19.5718 808.909 20.4278 808.909 21.9098V25.9998H807.901V22.1558C807.901 21.0368 807.397 20.4808 806.442 20.4808C805.311 20.4808 804.69 21.1958 804.69 22.2618V25.9998H803.682V17.1758ZM801.262 21.6168C801.098 20.9898 800.541 20.4808 799.633 20.4808C798.496 20.4808 797.781 21.3888 797.781 22.8188C797.781 24.2778 798.508 25.2028 799.633 25.2028C800.482 25.2028 801.074 24.8108 801.262 24.0958H802.281C802.099 25.2558 801.156 26.1118 799.639 26.1118C797.869 26.1118 796.738 24.8278 796.738 22.8188C796.738 20.8498 797.863 19.5718 799.633 19.5718C801.168 19.5718 802.105 20.4918 802.281 21.6168H801.262ZM794.729 18.0488V19.6838H796.136V20.5278H794.729V24.1018C794.729 24.8458 795.011 25.1618 795.667 25.1618C795.849 25.1618 795.948 25.1558 796.136 25.1388V25.9888C795.936 26.0238 795.743 26.0468 795.544 26.0468C794.243 26.0468 793.722 25.5668 793.722 24.3598V20.5278H792.702V19.6838H793.722V18.0488H794.729ZM790.529 23.6448V23.0648L788.83 23.1758C787.869 23.2398 787.447 23.5738 787.447 24.2068C787.447 24.8518 787.992 25.2268 788.724 25.2268C789.762 25.2268 790.529 24.5468 790.529 23.6448ZM786.404 24.2308C786.404 23.0998 787.236 22.4488 788.707 22.3618L790.529 22.2498V21.6758C790.529 20.8968 790.043 20.4688 789.099 20.4688C788.344 20.4688 787.816 20.7558 787.676 21.2538H786.656C786.791 20.2398 787.787 19.5718 789.135 19.5718C790.676 19.5718 791.537 20.3638 791.537 21.6758V25.9998H790.576V25.0688H790.482C790.072 25.7418 789.381 26.1118 788.537 26.1118C787.312 26.1118 786.404 25.3848 786.404 24.2308ZM778.72 25.9998H777.724L775.421 17.5448H776.522L778.204 24.4178H778.274L780.167 17.5448H781.233L783.126 24.4178H783.196L784.878 17.5448H785.979L783.677 25.9998H782.681L780.735 19.3258H780.665L778.72 25.9998Z" fill="white" fill-opacity="0.8"/>
<g clip-path="url(#clip2_2_272)">
<path d="M845.244 17.5449H846.352L848.836 24.6347H848.93L851.414 17.5449H852.522L849.405 26H848.362L845.244 17.5449ZM853.591 17.7617C853.591 17.375 853.907 17.0586 854.294 17.0586C854.681 17.0586 854.997 17.375 854.997 17.7617C854.997 18.1484 854.681 18.4648 854.294 18.4648C853.907 18.4648 853.591 18.1484 853.591 17.7617ZM853.779 19.6836H854.798V26H853.779V19.6836ZM856.278 24.3887H857.321C857.49 24.916 857.994 25.2617 858.803 25.2617C859.653 25.2617 860.256 24.8574 860.256 24.2832V24.2715C860.256 23.8438 859.934 23.5449 859.154 23.3574L858.176 23.123C856.992 22.8418 856.459 22.3261 856.459 21.4179V21.412C856.459 20.3632 857.467 19.5722 858.809 19.5722C860.133 19.5722 861.053 20.2343 861.194 21.2656H860.192C860.057 20.7676 859.565 20.4218 858.803 20.4218C858.053 20.4218 857.502 20.8085 857.502 21.3652V21.3769C857.502 21.8046 857.818 22.0742 858.563 22.2558L859.535 22.4902C860.725 22.7773 861.299 23.2929 861.299 24.1953V24.207C861.299 25.332 860.203 26.1113 858.768 26.1113C857.362 26.1113 856.395 25.4317 856.278 24.3887ZM862.598 17.7617C862.598 17.375 862.914 17.0586 863.301 17.0586C863.688 17.0586 864.004 17.375 864.004 17.7617C864.004 18.1484 863.688 18.4648 863.301 18.4648C862.914 18.4648 862.598 18.1484 862.598 17.7617ZM862.785 19.6836H863.805V26H862.785V19.6836ZM865.29 22.8477V22.836C865.29 20.8087 866.404 19.5723 868.202 19.5723C870.001 19.5723 871.114 20.8086 871.114 22.836V22.8477C871.114 24.8692 870.001 26.1114 868.202 26.1114C866.404 26.1114 865.29 24.8692 865.29 22.8477ZM870.071 22.8477V22.836C870.071 21.3419 869.398 20.4747 868.202 20.4747C867.007 20.4747 866.333 21.3419 866.333 22.836V22.8477C866.333 24.336 867.007 25.209 868.202 25.209C869.398 25.209 870.071 24.336 870.071 22.8477ZM872.576 19.6836H873.596V20.6328H873.69C874.006 19.9648 874.598 19.5723 875.529 19.5723C876.947 19.5723 877.738 20.4102 877.738 21.9102V26H876.719V22.1562C876.719 21.0195 876.25 20.4746 875.242 20.4746C874.235 20.4746 873.596 21.1543 873.596 22.2617V26H872.576V19.6836Z" fill="white" fill-opacity="0.8"/>
</g>
<g clip-path="url(#clip3_2_272)">
<path d="M925.695 19.6836H926.656V20.6206H926.75C926.937 20.0056 927.664 19.5726 928.502 19.5726C928.666 19.5726 928.877 19.5836 929.006 19.6016V20.6096C928.924 20.5856 928.56 20.5506 928.361 20.5506C927.4 20.5506 926.703 21.1956 926.703 22.0856V25.9996H925.695V19.6836ZM953.83 19.5726C955.154 19.5726 956.074 20.2286 956.209 21.2656H955.213C955.078 20.7616 954.586 20.4276 953.824 20.4276C953.074 20.4276 952.488 20.8086 952.488 21.3706C952.488 21.8046 952.84 22.0746 953.584 22.2556L954.557 22.4906C955.746 22.7776 956.32 23.2926 956.32 24.2016C956.32 25.3316 955.225 26.1116 953.789 26.1116C952.383 26.1116 951.416 25.4376 951.305 24.3886H952.342C952.512 24.9216 953.016 25.2616 953.824 25.2616C954.674 25.2616 955.283 24.8576 955.283 24.2776C955.283 23.8436 954.955 23.5506 954.281 23.3866L953.197 23.1226C952.014 22.8356 951.475 22.3266 951.475 21.4126C951.475 20.3636 952.488 19.5726 953.83 19.5726ZM947.165 25.2036C946.01 25.2036 945.319 24.3186 945.319 22.8416C945.319 21.3706 946.016 20.4806 947.165 20.4806C948.307 20.4806 949.022 21.3946 949.022 22.8416C949.022 24.3006 948.313 25.2036 947.165 25.2036ZM948.999 17.1756V20.6796H948.911C948.553 19.9886 947.809 19.5726 946.93 19.5726C945.325 19.5726 944.276 20.8616 944.276 22.8416C944.276 24.8286 945.313 26.1116 946.93 26.1116C947.803 26.1116 948.553 25.6956 948.952 24.9926H949.046V25.9996H950.007V17.1756H948.999ZM939.998 25.2036C938.803 25.2036 938.129 24.3356 938.129 22.8416C938.129 21.3416 938.803 20.4806 939.998 20.4806C941.194 20.4806 941.867 21.3416 941.867 22.8416C941.867 24.3356 941.194 25.2036 939.998 25.2036ZM939.998 19.5726C938.199 19.5726 937.086 20.8086 937.086 22.8416C937.086 24.8696 938.199 26.1116 939.998 26.1116C941.797 26.1116 942.91 24.8696 942.91 22.8416C942.91 20.8086 941.797 19.5726 939.998 19.5726ZM922.927 25.9996H923.935V19.6836H922.927V25.9996ZM922.728 17.7616C922.728 17.3746 923.045 17.0586 923.431 17.0586C923.818 17.0586 924.134 17.3746 924.134 17.7616C924.134 18.1486 923.818 18.4646 923.431 18.4646C923.045 18.4646 922.728 18.1486 922.728 17.7616ZM916.591 22.6836L917.915 18.9106H918.008L919.333 22.6836H916.591ZM918.483 17.5446H917.44L914.323 25.9996H915.43L916.28 23.5796H919.643L920.493 25.9996H921.6L918.483 17.5446ZM933.351 22.0446H931.487V18.4826H933.351C934.575 18.4826 935.249 19.1216 935.249 20.2816C935.249 21.4006 934.552 22.0446 933.351 22.0446ZM933.626 17.5446H930.433V25.9996H931.487V22.9826H933.614C935.202 22.9826 936.333 21.8636 936.333 20.2816C936.333 18.6696 935.226 17.5446 933.626 17.5446Z" fill="white" fill-opacity="0.8"/>
</g>
<path d="M996.506 26V18.4941H993.781V17.5449H1000.28V18.4941H997.56V26H996.506ZM1004.24 26L1001.12 17.5449H1002.23L1004.71 24.6347H1004.81L1007.29 17.5449H1008.4L1005.28 26H1004.24ZM1018.22 25.1562C1017.5 25.789 1016.51 26.1582 1015.48 26.1582C1013.8 26.1582 1012.62 25.1621 1012.62 23.7441C1012.62 22.7421 1013.17 21.9804 1014.3 21.3828C1014.37 21.3476 1014.53 21.2656 1014.63 21.2187C1013.85 20.3984 1013.57 19.8535 1013.57 19.2382C1013.57 18.1542 1014.49 17.3456 1015.72 17.3456C1016.97 17.3456 1017.88 18.1425 1017.88 19.2499C1017.88 20.1171 1017.36 20.7499 1016.05 21.4354L1018.17 23.7088C1018.43 23.1815 1018.56 22.49 1018.56 21.4354V21.2889H1019.55V21.4412C1019.55 22.7537 1019.31 23.7088 1018.85 24.4236L1020.32 26H1019L1018.22 25.1562ZM1013.68 23.6738C1013.68 24.623 1014.44 25.2676 1015.58 25.2676C1016.34 25.2676 1017.13 24.9629 1017.6 24.4766L1015.21 21.8633C1015.14 21.8867 1014.99 21.9629 1014.91 22.0039C1014.09 22.4258 1013.68 23.0117 1013.68 23.6738ZM1016.89 19.2852C1016.89 18.629 1016.41 18.1836 1015.73 18.1836C1015.05 18.1836 1014.57 18.6406 1014.57 19.2969C1014.57 19.7657 1014.81 20.1758 1015.48 20.8379C1016.51 20.3105 1016.89 19.8887 1016.89 19.2852ZM1030.41 26V22.1504H1025.76V26H1024.71V17.5449H1025.76V21.2011H1030.41V17.5449H1031.46V26H1030.41ZM1033.05 22.8418C1033.05 20.8086 1034.16 19.5723 1035.96 19.5723C1037.76 19.5723 1038.88 20.8086 1038.88 22.8418C1038.88 24.8691 1037.76 26.1113 1035.96 26.1113C1034.16 26.1113 1033.05 24.8691 1033.05 22.8418ZM1037.83 22.8418C1037.83 21.3418 1037.16 20.4805 1035.96 20.4805C1034.77 20.4805 1034.09 21.3418 1034.09 22.8418C1034.09 24.3359 1034.77 25.2031 1035.96 25.2031C1037.16 25.2031 1037.83 24.3359 1037.83 22.8418ZM1040.34 19.6836H1041.3V20.6797H1041.39C1041.68 19.9766 1042.31 19.5723 1043.16 19.5723C1044.01 19.5723 1044.61 20.0235 1044.9 20.6797H1045C1045.34 20.0117 1046.06 19.5723 1046.93 19.5723C1048.22 19.5723 1048.94 20.3106 1048.94 21.6348V26H1047.93V21.8691C1047.93 20.9375 1047.49 20.4804 1046.6 20.4804C1045.72 20.4804 1045.14 21.1366 1045.14 21.9394V26H1044.13V21.7109C1044.13 20.9609 1043.61 20.4804 1042.81 20.4804C1041.98 20.4804 1041.35 21.1952 1041.35 22.0859V26H1040.34L1040.34 19.6836ZM1055.85 24.3652C1055.56 25.4433 1054.57 26.1113 1053.19 26.1113C1051.44 26.1113 1050.34 24.8457 1050.34 22.8476C1050.34 20.8613 1051.46 19.5722 1053.19 19.5722C1054.9 19.5722 1055.93 20.7851 1055.93 22.748V23.1347H1051.39V23.1816C1051.44 24.4296 1052.14 25.2207 1053.21 25.2207C1054.03 25.2207 1054.58 24.9219 1054.84 24.3652H1055.85ZM1051.39 22.3203H1054.87C1054.85 21.2012 1054.18 20.4629 1053.18 20.4629C1052.17 20.4629 1051.47 21.2012 1051.39 22.3203Z" fill="white" fill-opacity="0.8"/>
<g clip-path="url(#clip4_2_272)">
<path d="M1092.27 17.4863H1097.51V18.4355H1093.32V21.1484H1097.29V22.0859H1093.32V24.9921H1097.51V25.9413H1092.27V17.4863ZM1099.17 19.625H1100.19V20.5742H1100.28C1100.6 19.9062 1101.19 19.5137 1102.12 19.5137C1103.54 19.5137 1104.33 20.3516 1104.33 21.8516V25.9414H1103.31V22.0976C1103.31 20.9609 1102.84 20.416 1101.84 20.416C1100.83 20.416 1100.19 21.0957 1100.19 22.2031V25.9414H1099.17V19.625ZM1106.45 24.3008V20.4688H1105.45V19.625H1106.45V17.9902H1107.5V19.625H1108.89V20.4688H1107.5V24.043C1107.5 24.7871 1107.76 25.086 1108.42 25.086C1108.6 25.086 1108.7 25.0801 1108.89 25.0626V25.9298C1108.69 25.965 1108.49 25.9884 1108.3 25.9884C1106.99 25.9883 1106.45 25.5078 1106.45 24.3008ZM1109.89 22.8066V22.8007C1109.89 20.8495 1111 19.5136 1112.72 19.5136C1114.43 19.5136 1115.48 20.7909 1115.48 22.6777V23.0761H1110.93C1110.96 24.3827 1111.68 25.1445 1112.8 25.1445C1113.66 25.1445 1114.19 24.7402 1114.36 24.3593L1114.38 24.3066H1115.4L1115.39 24.3535C1115.17 25.209 1114.27 26.0527 1112.78 26.0527C1110.98 26.0527 1109.89 24.7871 1109.89 22.8066ZM1110.95 22.2617H1114.44C1114.33 21.0137 1113.64 20.4219 1112.71 20.4219C1111.77 20.4219 1111.06 21.0605 1110.95 22.2617ZM1116.94 19.625H1117.96V20.5625H1118.05C1118.29 19.9004 1118.88 19.5137 1119.74 19.5137C1119.93 19.5137 1120.15 19.5371 1120.25 19.5547V20.5449C1120.04 20.5097 1119.84 20.4863 1119.62 20.4863C1118.65 20.4863 1117.96 21.1015 1117.96 22.0273V25.9414H1116.94V19.625ZM1121.9 24.3008V20.4688H1120.91V19.625H1121.9V17.9902H1122.96V19.625H1124.34V20.4688H1122.96V24.043C1122.96 24.7871 1123.22 25.086 1123.87 25.086C1124.05 25.086 1124.15 25.0801 1124.34 25.0626V25.9298C1124.14 25.965 1123.95 25.9884 1123.75 25.9884C1122.45 25.9883 1121.9 25.5078 1121.9 24.3008ZM1125.37 24.1777V24.166C1125.37 23.041 1126.2 22.3906 1127.67 22.3027L1129.48 22.1914V21.6172C1129.48 20.8379 1129.01 20.416 1128.06 20.416C1127.31 20.416 1126.81 20.6972 1126.65 21.1894L1126.64 21.207H1125.62L1125.63 21.1718C1125.79 20.1816 1126.75 19.5136 1128.1 19.5136C1129.64 19.5136 1130.5 20.3046 1130.5 21.6171V25.9413H1129.48V25.0097H1129.39C1128.99 25.6835 1128.33 26.0527 1127.48 26.0527C1126.28 26.0527 1125.37 25.3262 1125.37 24.1777ZM1127.69 25.168C1128.73 25.168 1129.48 24.4883 1129.48 23.586V23.0118L1127.8 23.1173C1126.83 23.1759 1126.41 23.5157 1126.41 24.1427V24.1544C1126.41 24.793 1126.96 25.168 1127.69 25.168ZM1132.08 17.7031C1132.08 17.3164 1132.4 17 1132.79 17C1133.17 17 1133.49 17.3164 1133.49 17.7031C1133.49 18.0898 1133.17 18.4062 1132.79 18.4062C1132.4 18.4062 1132.08 18.0898 1132.08 17.7031ZM1132.27 19.625H1133.29V25.9414H1132.27V19.625ZM1135.09 19.625H1136.11V20.5742H1136.2C1136.52 19.9062 1137.11 19.5137 1138.04 19.5137C1139.46 19.5137 1140.25 20.3516 1140.25 21.8516V25.9414H1139.23V22.0976C1139.23 20.9609 1138.77 20.416 1137.76 20.416C1136.75 20.416 1136.11 21.0957 1136.11 22.2031V25.9414H1135.09V19.625ZM1141.97 19.625H1142.99V20.5859H1143.09C1143.37 19.9062 1143.97 19.5136 1144.79 19.5136C1145.65 19.5136 1146.24 19.9648 1146.54 20.621H1146.63C1146.97 19.953 1147.69 19.5136 1148.57 19.5136C1149.85 19.5136 1150.57 20.2519 1150.57 21.5761V25.9413H1149.56V21.8104C1149.56 20.8788 1149.13 20.4159 1148.24 20.4159C1147.36 20.4159 1146.78 21.078 1146.78 21.8807V25.9412H1145.76V21.6521C1145.76 20.9021 1145.24 20.4158 1144.45 20.4158C1143.62 20.4158 1142.99 21.1365 1142.99 22.0271V25.9412H1141.97L1141.97 19.625ZM1151.98 22.8066V22.8007C1151.98 20.8495 1153.09 19.5136 1154.81 19.5136C1156.52 19.5136 1157.57 20.7909 1157.57 22.6777V23.0761H1153.02C1153.05 24.3827 1153.77 25.1445 1154.9 25.1445C1155.75 25.1445 1156.28 24.7402 1156.45 24.3593L1156.47 24.3066H1157.49L1157.48 24.3535C1157.26 25.209 1156.36 26.0527 1154.87 26.0527C1153.07 26.0527 1151.98 24.7871 1151.98 22.8066ZM1153.04 22.2617H1156.53C1156.43 21.0137 1155.73 20.4219 1154.8 20.4219C1153.86 20.4219 1153.15 21.0605 1153.04 22.2617ZM1159.03 19.625H1160.05V20.5742H1160.14C1160.46 19.9062 1161.05 19.5137 1161.98 19.5137C1163.4 19.5137 1164.19 20.3516 1164.19 21.8516V25.9414H1163.17V22.0976C1163.17 20.9609 1162.7 20.416 1161.7 20.416C1160.69 20.416 1160.05 21.0957 1160.05 22.2031V25.9414H1159.03V19.625ZM1166.31 24.3008V20.4688H1165.31V19.625H1166.31V17.9902H1167.36V19.625H1168.75V20.4688H1167.36V24.043C1167.36 24.7871 1167.62 25.086 1168.28 25.086C1168.46 25.086 1168.56 25.0801 1168.75 25.0626V25.9298C1168.55 25.965 1168.36 25.9884 1168.16 25.9884C1166.86 25.9883 1166.31 25.5078 1166.31 24.3008Z" fill="white" fill-opacity="0.8"/>
</g>
<g clip-path="url(#clip5_2_272)">
<path d="M1210.07 23.5715H1206.71L1205.86 25.9914H1204.75L1207.87 17.5363H1208.91L1212.03 25.9914H1210.92L1210.07 23.5715ZM1207.02 22.675H1209.76L1208.44 18.9016H1208.34L1207.02 22.675ZM1217.12 21.6086C1216.95 20.9816 1216.4 20.4719 1215.49 20.4719C1214.35 20.4719 1213.64 21.3801 1213.64 22.8098C1213.64 24.2688 1214.36 25.1946 1215.49 25.1946C1216.34 25.1946 1216.93 24.802 1217.12 24.0872H1218.14C1217.95 25.2474 1217.01 26.1028 1215.49 26.1028C1213.72 26.1028 1212.59 24.8196 1212.59 22.8098C1212.59 20.841 1213.72 19.5637 1215.49 19.5637C1217.02 19.5637 1217.96 20.4836 1218.14 21.6086H1217.12ZM1223.71 21.6086C1223.55 20.9816 1222.99 20.4719 1222.08 20.4719C1220.95 20.4719 1220.23 21.3801 1220.23 22.8098C1220.23 24.2688 1220.96 25.1946 1222.08 25.1946C1222.93 25.1946 1223.52 24.802 1223.71 24.0872H1224.73C1224.55 25.2474 1223.61 26.1028 1222.09 26.1028C1220.32 26.1028 1219.19 24.8196 1219.19 22.8098C1219.19 20.841 1220.31 19.5637 1222.08 19.5637C1223.62 19.5637 1224.55 20.4836 1224.73 21.6086H1223.71ZM1231.29 24.3566C1231 25.4347 1230.01 26.1027 1228.63 26.1027C1226.88 26.1027 1225.78 24.8371 1225.78 22.839C1225.78 20.8527 1226.9 19.5636 1228.63 19.5636C1230.34 19.5636 1231.37 20.7765 1231.37 22.7394V23.1261H1226.83V23.173C1226.88 24.421 1227.58 25.2121 1228.65 25.2121C1229.47 25.2121 1230.02 24.9133 1230.28 24.3566H1231.29ZM1226.83 22.3117H1230.31C1230.29 21.1926 1229.62 20.4543 1228.62 20.4543C1227.61 20.4543 1226.91 21.1926 1226.83 22.3117ZM1235.04 19.5637C1236.37 19.5637 1237.29 20.2199 1237.42 21.2571H1236.43C1236.29 20.7532 1235.8 20.4192 1235.04 20.4192C1234.29 20.4192 1233.7 20.8001 1233.7 21.3626C1233.7 21.7962 1234.05 22.0657 1234.8 22.2474L1235.77 22.4818C1236.96 22.7689 1237.53 23.2845 1237.53 24.1927C1237.53 25.3236 1236.44 26.1029 1235 26.1029C1233.6 26.1029 1232.63 25.4291 1232.52 24.3802H1233.56C1233.73 24.9134 1234.23 25.2532 1235.04 25.2532C1235.89 25.2532 1236.5 24.8489 1236.5 24.2688C1236.5 23.8352 1236.17 23.5422 1235.49 23.3782L1234.41 23.1145C1233.23 22.8274 1232.69 22.3176 1232.69 21.4036C1232.69 20.3547 1233.7 19.5637 1235.04 19.5637ZM1241.09 19.5637C1242.41 19.5637 1243.33 20.2199 1243.47 21.2571H1242.47C1242.34 20.7532 1241.84 20.4192 1241.08 20.4192C1240.33 20.4192 1239.75 20.8001 1239.75 21.3626C1239.75 21.7962 1240.1 22.0657 1240.84 22.2474L1241.81 22.4818C1243 22.7689 1243.58 23.2845 1243.58 24.1927C1243.58 25.3236 1242.48 26.1029 1241.05 26.1029C1239.64 26.1029 1238.67 25.4291 1238.56 24.3802H1239.6C1239.77 24.9134 1240.27 25.2532 1241.08 25.2532C1241.93 25.2532 1242.54 24.8489 1242.54 24.2688C1242.54 23.8352 1242.21 23.5422 1241.54 23.3782L1240.45 23.1145C1239.27 22.8274 1238.73 22.3176 1238.73 21.4036C1238.73 20.3547 1239.75 19.5637 1241.09 19.5637ZM1244.72 22.8332C1244.72 20.8 1245.84 19.5637 1247.64 19.5637C1249.43 19.5637 1250.55 20.8 1250.55 22.8332C1250.55 24.8605 1249.43 26.1027 1247.64 26.1027C1245.84 26.1027 1244.72 24.8605 1244.72 22.8332ZM1249.5 22.8332C1249.5 21.3332 1248.83 20.4719 1247.64 20.4719C1246.44 20.4719 1245.77 21.3332 1245.77 22.8332C1245.77 24.3273 1246.44 25.1945 1247.64 25.1945C1248.83 25.1945 1249.5 24.3273 1249.5 22.8332ZM1252.01 19.675H1252.97V20.6125H1253.06C1253.25 19.9973 1253.98 19.5637 1254.82 19.5637C1254.98 19.5637 1255.19 19.5754 1255.32 19.593V20.6008C1255.24 20.5774 1254.88 20.5422 1254.68 20.5422C1253.72 20.5422 1253.02 21.1867 1253.02 22.0774V25.9915H1252.01L1252.01 19.675ZM1256.28 17.7531C1256.28 17.3664 1256.6 17.05 1256.99 17.05C1257.37 17.05 1257.69 17.3664 1257.69 17.7531C1257.69 18.1398 1257.37 18.4562 1256.99 18.4562C1256.6 18.4562 1256.28 18.1398 1256.28 17.7531ZM1256.48 19.675H1257.49V25.9914H1256.48V19.675ZM1264.48 24.3566C1264.19 25.4347 1263.21 26.1027 1261.82 26.1027C1260.07 26.1027 1258.98 24.8371 1258.98 22.839C1258.98 20.8527 1260.09 19.5636 1261.82 19.5636C1263.53 19.5636 1264.57 20.7765 1264.57 22.7394V23.1261H1260.03V23.173C1260.08 24.421 1260.78 25.2121 1261.85 25.2121C1262.66 25.2121 1263.21 24.9133 1263.48 24.3566H1264.48ZM1260.03 22.3117H1263.51C1263.48 21.1926 1262.81 20.4543 1261.81 20.4543C1260.8 20.4543 1260.1 21.1926 1260.03 22.3117ZM1268.24 19.5637C1269.56 19.5637 1270.48 20.2199 1270.62 21.2571H1269.62C1269.49 20.7532 1268.99 20.4192 1268.23 20.4192C1267.48 20.4192 1266.9 20.8001 1266.9 21.3626C1266.9 21.7962 1267.25 22.0657 1267.99 22.2474L1268.96 22.4818C1270.15 22.7689 1270.73 23.2845 1270.73 24.1927C1270.73 25.3236 1269.63 26.1029 1268.2 26.1029C1266.79 26.1029 1265.82 25.4291 1265.71 24.3802H1266.75C1266.92 24.9134 1267.42 25.2532 1268.23 25.2532C1269.08 25.2532 1269.69 24.8489 1269.69 24.2688C1269.69 23.8352 1269.36 23.5422 1268.69 23.3782L1267.6 23.1145C1266.42 22.8274 1265.88 22.3176 1265.88 21.4036C1265.88 20.3547 1266.9 19.5637 1268.24 19.5637Z" fill="white" fill-opacity="0.8"/>
</g>
<g clip-path="url(#clip6_2_272)">
<path d="M1348.67 18.0337V19.6687H1350.08V20.5127H1348.67V24.0867C1348.67 24.8307 1348.95 25.1467 1349.61 25.1467C1349.79 25.1467 1349.89 25.1407 1350.08 25.1237V25.9727C1349.88 26.0087 1349.68 26.0317 1349.48 26.0317C1348.18 26.0317 1347.66 25.5517 1347.66 24.3447V20.5127H1346.64V19.6687H1347.66V18.0337H1348.67ZM1342.54 19.6687H1343.5V20.6057H1343.59C1343.78 19.9907 1344.51 19.5567 1345.35 19.5567C1345.51 19.5567 1345.72 19.5687 1345.85 19.5867V20.5947C1345.77 20.5707 1345.4 20.5357 1345.21 20.5357C1344.24 20.5357 1343.55 21.1797 1343.55 22.0707V25.9847H1342.54V19.6687ZM1340.08 22.8267C1340.08 21.3267 1339.4 20.4657 1338.21 20.4657C1337.01 20.4657 1336.34 21.3267 1336.34 22.8267C1336.34 24.3207 1337.01 25.1877 1338.21 25.1877C1339.4 25.1877 1340.08 24.3207 1340.08 22.8267ZM1335.3 22.8267C1335.3 20.7937 1336.41 19.5567 1338.21 19.5567C1340.01 19.5567 1341.12 20.7937 1341.12 22.8267C1341.12 24.8537 1340.01 26.0967 1338.21 26.0967C1336.41 26.0967 1335.3 24.8537 1335.3 22.8267ZM1333.19 22.8267C1333.19 21.3497 1332.5 20.4657 1331.34 20.4657C1330.2 20.4657 1329.48 21.3737 1329.48 22.8267C1329.48 24.2737 1330.2 25.1877 1331.34 25.1877C1332.5 25.1877 1333.19 24.3037 1333.19 22.8267ZM1334.23 22.8267C1334.23 24.8017 1333.18 26.0967 1331.58 26.0967C1330.67 26.0967 1329.95 25.7037 1329.6 25.0357H1329.51V28.0947H1328.5V19.6687H1329.46V20.7227H1329.55C1329.96 19.9967 1330.71 19.5567 1331.58 19.5567C1333.19 19.5567 1334.23 20.8407 1334.23 22.8267ZM1326.18 22.8267C1326.18 21.3497 1325.49 20.4657 1324.34 20.4657C1323.19 20.4657 1322.47 21.3737 1322.47 22.8267C1322.47 24.2737 1323.19 25.1877 1324.33 25.1877C1325.49 25.1877 1326.18 24.3037 1326.18 22.8267ZM1327.23 22.8267C1327.23 24.8017 1326.18 26.0967 1324.57 26.0967C1323.67 26.0967 1322.94 25.7037 1322.6 25.0357H1322.5V28.0947H1321.5V19.6687H1322.46V20.7227H1322.55C1322.95 19.9967 1323.71 19.5567 1324.57 19.5567C1326.18 19.5567 1327.23 20.8407 1327.23 22.8267ZM1319.58 25.9847H1318.62V24.9947H1318.53C1318.21 25.6977 1317.54 26.0967 1316.57 26.0967C1315.15 26.0967 1314.41 25.2527 1314.41 23.7587V19.6687H1315.42V23.5127C1315.42 24.6487 1315.84 25.1767 1316.85 25.1767C1317.96 25.1767 1318.57 24.5137 1318.57 23.4067V19.6687H1319.58V25.9847ZM1307.89 23.7757C1308.02 24.6607 1308.86 25.2227 1310.06 25.2227C1311.2 25.2227 1312.04 24.6077 1312.04 23.7697C1312.04 23.0497 1311.51 22.5927 1310.35 22.2997L1309.26 22.0177C1307.73 21.6317 1307.07 20.9397 1307.07 19.7387C1307.07 18.3037 1308.27 17.3307 1310.06 17.3307C1311.69 17.3307 1312.91 18.3037 1313 19.6687H1311.94C1311.79 18.8017 1311.08 18.2857 1310.02 18.2857C1308.9 18.2857 1308.15 18.8477 1308.15 19.7037C1308.15 20.3657 1308.62 20.7467 1309.78 21.0457L1310.67 21.2797C1312.42 21.7197 1313.12 22.3987 1313.12 23.6407C1313.12 25.1937 1311.9 26.1837 1309.96 26.1837C1308.17 26.1837 1306.94 25.2347 1306.82 23.7757H1307.89Z" fill="white" fill-opacity="0.8"/>
</g>
<g clip-path="url(#clip7_2_272)">
<path d="M1399.99 27.202L1396.12 23.332C1396.82 22.403 1397.24 21.251 1397.24 20C1397.24 16.94 1394.75 14.45 1391.69 14.45C1388.63 14.45 1386.14 16.94 1386.14 20C1386.14 23.061 1388.63 25.55 1391.69 25.55C1392.94 25.55 1394.09 25.129 1395.02 24.428L1398.89 28.298C1399.04 28.449 1399.24 28.526 1399.44 28.526C1399.64 28.526 1399.84 28.45 1399.99 28.298C1400.29 27.995 1400.29 27.505 1399.99 27.202ZM1387.24 20C1387.24 17.546 1389.24 15.55 1391.69 15.55C1394.14 15.55 1396.14 17.547 1396.14 20C1396.14 22.453 1394.14 24.45 1391.69 24.45C1389.24 24.45 1387.24 22.454 1387.24 20Z" fill="white" fill-opacity="0.8"/>
</g>
<g clip-path="url(#clip8_2_272)">
<path d="M1447.18 16.0283H1446.16C1446.05 15.2173 1445.66 14.4723 1445.05 13.9284C1444.43 13.3845 1443.65 13.0776 1442.83 13.0635C1442.01 13.0776 1441.23 13.3845 1440.61 13.9284C1440 14.4723 1439.61 15.2173 1439.5 16.0283H1438.48C1437.92 16.0287 1437.38 16.2517 1436.98 16.6485C1436.58 17.0452 1436.36 17.5833 1436.36 18.1445V25.86C1436.36 26.4211 1436.58 26.9592 1436.98 27.356C1437.38 27.7528 1437.92 27.9761 1438.48 27.9767H1447.18C1447.74 27.9762 1448.28 27.7531 1448.68 27.3562C1449.08 26.9594 1449.3 26.4212 1449.3 25.86V18.1445C1449.3 17.5834 1449.08 17.0454 1448.68 16.6487C1448.28 16.2519 1447.74 16.0288 1447.18 16.0283ZM1442.83 14.1631C1443.36 14.1746 1443.87 14.3657 1444.27 14.7048C1444.67 15.044 1444.95 15.5109 1445.05 16.0283H1440.61C1440.71 15.5109 1440.99 15.044 1441.39 14.7048C1441.79 14.3657 1442.3 14.1746 1442.83 14.1631ZM1448.2 25.86C1448.2 26.1296 1448.09 26.388 1447.9 26.5787C1447.71 26.7694 1447.45 26.8767 1447.18 26.8771H1438.48C1438.21 26.8766 1437.95 26.7693 1437.76 26.5787C1437.57 26.388 1437.46 26.1296 1437.46 25.86V18.1445C1437.46 17.875 1437.57 17.6166 1437.76 17.426C1437.95 17.2354 1438.21 17.1282 1438.48 17.1279H1447.18C1447.45 17.1283 1447.71 17.2355 1447.9 17.4261C1448.09 17.6167 1448.2 17.875 1448.2 18.1445V25.86Z" fill="white" fill-opacity="0.8"/>
</g>
<defs>
<clipPath id="clip0_2_272">
<rect width="30" height="44" fill="white" transform="translate(519.14)"/>
</clipPath>
<clipPath id="clip1_2_272">
<rect width="23" height="44" fill="white" transform="translate(584.28)"/>
</clipPath>
<clipPath id="clip2_2_272">
<rect width="34" height="44" fill="white" transform="translate(844.84)"/>
</clipPath>
<clipPath id="clip3_2_272">
<rect width="43" height="44" fill="white" transform="translate(913.98)"/>
</clipPath>
<clipPath id="clip4_2_272">
<rect width="77" height="44" fill="white" transform="translate(1092.27)"/>
</clipPath>
<clipPath id="clip5_2_272">
<rect width="67" height="44" fill="white" transform="translate(1204.41)"/>
</clipPath>
<clipPath id="clip6_2_272">
<rect width="44" height="44" fill="white" transform="translate(1306.55)"/>
</clipPath>
<clipPath id="clip7_2_272">
<rect width="15" height="44" fill="white" transform="translate(1385.69)"/>
</clipPath>
<clipPath id="clip8_2_272">
<rect width="14" height="44" fill="white" transform="translate(1435.83)"/>
</clipPath>
</defs>
</svg>
